<svg width="127" height="130" viewBox="0 0 127 130" fill="none" xmlns="http://www.w3.org/2000/svg">
    <path fill="#0A0A0A" fill-rule="evenodd" clip-rule="evenodd"
          d="M63.4228 15C65.8319 16.45 68.2228 17.9318 70.6501 19.3455C82.1728 26.0273 93.6955 32.7 105.232 39.3545C105.991 39.7909 106.327 40.2773 106.327 41.2091C106.305 57.0818 106.309 72.9546 106.364 88.8273C106.364 89.8636 105.891 90.2954 105.136 90.7318C91.4228 98.6682 77.7182 106.618 64.0137 114.568C63.8046 114.691 63.6182 114.855 63.4228 115H62.9228C58.7864 112.564 54.6501 110.105 50.5001 107.691C40.7091 102.005 30.9091 96.3273 21.1001 90.6773C20.2682 90.2 19.9955 89.6546 20.0001 88.7C20.0455 72.9546 20.0546 57.2091 20.0228 41.4591C20.0228 40.3318 20.4091 39.7636 21.3364 39.2318C34.9228 31.3955 48.4864 23.5318 62.0546 15.6682C62.3682 15.4864 62.6364 15.2227 62.9228 15H63.4228ZM76.1773 94.4545C78.0546 95.7409 79.891 97.0909 81.7819 98.4546C81.8864 98.4091 82.041 98.3455 82.1819 98.2682C88.3182 94.7182 94.4682 91.1773 100.586 87.5864C100.95 87.3727 101.268 86.7455 101.268 86.3136C101.3 72.1045 101.296 57.9 101.255 43.6955C101.234 43.4482 101.16 43.2084 101.037 42.9925C100.915 42.7767 100.747 42.59 100.546 42.4455C94.5 38.8909 88.4228 35.4 82.3728 31.8591C81.7455 31.4955 81.3955 31.6045 80.8637 32.0182C79.3955 33.1682 64.9591 41.9864 59.3046 45.3818C54.8864 48.0273 50.5682 50.8182 47.1501 54.7909C42.4364 60.2682 41.9955 67.8591 46.1182 73.8136C48.1591 76.7682 50.8819 79.0136 53.8001 81.0091C56.1273 82.5955 58.5273 84.0682 60.891 85.5909C60.8273 85.6818 60.791 85.7727 60.7273 85.8091C57.6091 87.6182 54.5001 89.4455 51.3455 91.2045C51.041 91.3727 50.4091 91.2045 50.0637 90.9864C46.7123 88.8235 43.638 86.2591 40.9091 83.35C33.0455 75.1046 31.4455 61.5909 37.1819 51.7318C39.824 47.1837 43.4987 43.3206 47.9091 40.4545C53.6364 36.7091 69.591 27.2409 71.7046 25.9455C71.5228 25.7091 71.4728 25.5818 71.3773 25.5227C68.8682 24.0591 66.3773 22.5682 63.8319 21.1727C63.4591 20.9682 62.7819 21.0455 62.3773 21.2545C60.9773 21.9773 59.6364 22.8091 58.2773 23.6045C57.0773 24.3045 55.8819 25.0136 54.5046 25.8273L61.041 29.9364C57.7001 31.9091 54.541 33.8 51.3455 35.6318C51.091 35.7773 50.5455 35.6636 50.2682 35.4727C48.6857 34.4077 47.1423 33.2858 45.641 32.1091C44.9819 31.5864 44.5455 31.5364 43.8091 31.9682C37.8646 35.4444 31.904 38.8929 25.9273 42.3136C25.2682 42.6909 25.0546 43.1318 25.0546 43.8955C25.0773 57.9773 25.0728 72.0591 25.0501 86.1364C25.0501 86.8909 25.2455 87.3364 25.9228 87.7273C31.8591 91.1273 37.7773 94.5636 43.6819 98.0227C44.3364 98.4091 44.7728 98.3909 45.4319 97.95C49.6682 95.1182 69.0501 82.9682 74.4364 79.6182C75.3501 79.05 76.1182 78.2364 76.9455 77.5364L76.8091 77.2182H56.691C58.7364 73.6636 60.6455 70.3091 62.6228 66.9955C62.8046 66.6955 63.4728 66.5682 63.9182 66.5682C73.041 66.5455 82.1682 66.5545 91.291 66.5545C91.6546 66.5545 92.0182 66.5955 92.4591 66.6182C92.4819 67.05 92.5819 67.4364 92.5001 67.7727C91.9001 70.2682 91.5001 72.8455 90.591 75.2273C88.4364 80.8909 84.441 85.2455 79.5728 88.6C74.2546 92.2591 57.3228 102.236 54.4501 103.95C54.5864 104.191 54.6046 104.291 54.6637 104.327C56.4137 105.359 58.291 106.223 59.8864 107.459C62.1819 109.232 64.1819 109.223 66.4773 107.459C68.1319 106.191 70.0682 105.295 72.0728 104.118L65.4182 99.9591C65.6001 99.8 65.7046 99.6727 65.8364 99.5955C68.8819 97.8273 71.9273 96.05 75.0001 94.3227C75.291 94.1636 75.8819 94.25 76.1773 94.4545ZM89.3319 52.0136C90.9001 54.7955 92.0682 58.3727 92.241 61.1318C89.1591 61.1318 86.1864 61.15 83.2092 61.1091C82.9364 61.1045 82.5091 60.7909 82.4228 60.5273C80.9682 56.0364 77.8637 52.8455 74.1955 50.1636C71.591 48.2591 68.8182 46.5818 66.1228 44.8C65.8955 44.6545 65.6728 44.4955 65.3046 44.2409C65.9182 43.8727 66.3955 43.5773 66.8864 43.2909C69.3955 41.8364 71.8864 40.35 74.4319 38.95C74.8864 38.6955 75.7046 38.5409 76.0728 38.7818C81.391 42.2773 86.141 46.3591 89.3319 52.0136Z"/>
</svg>