<svg width="150" height="160" viewBox="0 0 150 160" fill="none" xmlns="http://www.w3.org/2000/svg">
<path fill-rule="evenodd" clip-rule="evenodd" d="M60.67 70.8V72.4ZM101.97 121.6L103.37 121.2L103.57 122.3C104.37 127.2 103.97 131.4 102.07 135.6C105.07 136 107.77 137.5 109.17 140.6C110.17 142.8 111.07 145.4 111.17 147.8C111.27 149.6 110.57 151.4 109.17 152.6C108.37 153.3 107.27 153.7 106.17 153.7H90.27C89.37 156.2 87.57 158.5 84.87 159.2C84.17 159.4 83.37 159.5 82.57 159.5C81.77 159.5 80.97 159.6 80.17 159.6C78.07 159.6 76.07 159.6 73.97 159.6C70.77 159.6 67.57 159.5 64.37 159.4C62.47 159.4 60.67 158.2 59.87 156.5C59.07 158.3 57.27 159.4 55.37 159.4C52.17 159.5 48.97 159.5 45.77 159.6C43.67 159.6 41.67 159.6 39.57 159.6C38.77 159.6 37.97 159.6 37.17 159.5C36.37 159.5 35.67 159.4 34.87 159.2C32.27 158.5 30.47 156.2 29.47 153.7H13.67C12.57 153.7 11.57 153.3 10.67 152.6C9.37 151.4 8.57 149.6 8.67 147.8C8.67 145.4 9.67 142.8 10.57 140.6C11.07 139.4 11.87 138.4 12.97 137.6C14.27 136.6 15.87 135.9 17.57 135.7C15.57 131.4 15.27 127.2 16.07 122.4L16.27 121.3L17.77 121.7C17.97 120.8 18.17 119.9 18.47 119C19.57 115.8 21.47 112.9 24.07 110.8C24.97 110 26.07 109.4 27.17 108.9C27.37 106 27.67 103.1 28.37 100.2C28.97 96.3 30.07 92.6 31.77 89.1C30.97 88.1 30.27 87 29.67 85.8C29.57 85.6 29.47 85.4 29.47 85.2C24.27 82.3 19.77 78.4 15.97 73.8C13.77 71.1 10.47 66.8 10.17 63.2C10.07 61.9 9.97 60.7 9.97 59.4C9.97 56.4 10.07 53.4 10.47 50.4C10.67 48.7 10.97 46.9 11.27 45.2C8.97 42.5 6.97 39.6 5.27 36.5C2.57 31.6 0.869999 26.3 0.269999 20.8C-0.330001 15.3 0.0700036 9.8 1.47 4.5C2.17 1.8 4.67001 0 7.37001 0C17.77 0 26.77 4.2 35.07 9.7C50.77 0.0999966 70.47 0.0999966 86.17 9.7C94.47 4.2 103.47 0 113.87 0C116.67 0 119.07 1.9 119.77 4.5C121.17 9.8 121.57 15.4 120.97 20.8C120.27 26.3 118.57 31.7 115.97 36.5C114.27 39.6 112.27 42.5 109.97 45.2C110.27 46.8 110.57 48.5 110.77 50.2C111.17 53.3 111.37 56.3 111.27 59.4C111.27 60.7 111.17 62 111.07 63.2C110.77 66.9 107.57 71 105.27 73.8C101.57 78.4 96.97 82.3 91.77 85.2L91.57 85.8C91.17 86.7 90.67 87.6 90.17 88.5C89.67 89.3 89.17 90 88.47 90.7C88.87 91.7 89.27 92.7 89.57 93.7C90.27 95.9 90.77 98.1 91.17 100.4C91.37 101.6 91.67 102.7 91.77 103.9C96.37 96.2 102.47 89.2 110.27 84.9C114.77 82.3 119.97 80.9 125.17 80.9C130.67 81 136.17 83.6 140.37 87.2C144.97 91.1 148.77 96.6 149.37 102.7C149.47 103.7 149.37 104.7 149.17 105.7C148.27 108.9 145.97 111.6 142.87 112.9C139.07 114.7 134.27 114.6 131.07 111.6C129.27 109.9 128.67 108 127.77 105.8C127.37 104.5 126.57 103.4 125.47 102.6C123.97 101.4 122.07 100.9 120.07 101C117.37 101.2 114.87 102.7 112.97 104.6C111.87 105.7 110.87 106.8 109.97 108C108.17 110.3 106.47 112.6 105.07 115.1C103.97 117 102.97 119 102.07 121C102.07 121.1 101.97 121.2 101.87 121.3C101.97 121.5 101.97 121.5 101.97 121.6ZM106.17 104.3C106.47 104.3 106.67 104.3 106.87 104.4C107.77 103.3 108.77 102.2 109.77 101.2C110.07 100.9 110.37 100.6 110.77 100.3C109.47 99.4 108.47 98.3 107.77 96.9C107.07 95.8 106.67 94.5 106.47 93.2C104.37 95 102.47 97 100.77 99.2C100.67 100.6 102.07 102.2 102.97 103C103.87 103.8 104.97 104.3 106.17 104.3ZM104.77 107.2C103.47 106.9 102.17 106.3 101.07 105.5C99.97 104.6 99.07 103.6 98.37 102.3C96.57 104.9 94.97 107.6 93.47 110.4C93.97 110.7 94.47 111.1 94.97 111.4C96.67 112.7 98.07 114.4 99.07 116.3C100.67 113.1 102.57 110.1 104.77 107.2ZM129.57 99.3C129.57 99.5 129.57 99.7 129.47 99.8C132.57 102.8 132.37 106.4 134.37 108.2C137.77 111.4 145.27 107.8 144.87 103.1C144.47 99.1 142.07 95 138.87 91.9C138.87 91.9 138.87 91.9 138.77 91.9C138.27 91.5 137.67 91.2 137.07 91.2C132.87 91.1 129.67 95.4 129.57 99.3ZM126.67 97.8C126.87 96.8 127.17 95.8 127.57 94.8C128.77 91.8 131.27 89.5 134.37 88.5C131.57 86.7 128.37 85.7 125.07 85.5C124.17 85.5 123.27 85.5 122.37 85.6C122.07 85.8 121.77 86 121.67 86.1C121.47 86.2 121.37 86.4 121.17 86.5C119.07 88.8 119.37 93.3 121.17 95.7C121.27 95.9 121.37 96 121.37 96.2C123.27 96.4 125.07 97 126.67 97.8ZM118.07 96.6C117.27 95 116.77 93.2 116.77 91.4C116.67 89.8 117.07 88.2 117.67 86.7C115.97 87.3 114.27 88 112.67 88.9C111.67 89.4 110.77 90 109.77 90.7C108.87 92 109.77 94.3 110.37 95.5C110.97 96.6 111.97 97.6 113.07 98.2C113.17 98.3 113.37 98.3 113.47 98.4C114.87 97.5 116.47 96.9 118.07 96.6ZM56.27 13.1C57.57 13.1 58.17 14.7 57.27 15.6C56.37 16.5 54.77 15.9 54.77 14.6C54.77 13.7 55.47 13.1 56.27 13.1ZM56.27 19.4C57.57 19.4 58.17 21 57.27 21.9C56.37 22.8 54.77 22.2 54.77 20.9C54.77 20.1 55.47 19.4 56.27 19.4ZM65.17 13.1C66.47 13.1 67.07 14.7 66.17 15.6C65.27 16.5 63.67 15.9 63.67 14.6C63.67 13.7 64.37 13.1 65.17 13.1ZM65.17 19.4C66.47 19.4 67.07 21 66.17 21.9C65.27 22.8 63.67 22.2 63.67 20.9C63.67 20.1 64.37 19.4 65.17 19.4ZM61.87 8.29999V25.6C71.07 25.8 80.17 28.4 85.77 33.3C92.17 39 96.47 48.8 95.97 53.9C95.57 58.5 88.17 61.7 78.27 63.3C78.77 64.2 79.07 65.1 79.27 66.1C79.47 67.5 79.47 68.9 79.27 70.3C82.97 69.9 86.37 69.3 89.37 68.7C94.67 67.6 99.87 66 104.87 64C105.07 63.5 105.17 63.1 105.17 62.6C105.17 62.6 107.27 43.2 96.27 27.3C88.57 15.8 75.77 8.79999 61.87 8.29999ZM59.47 25.6V8.29999C45.37 8.69999 32.37 16 24.57 27.8C13.97 43.6 16.07 62.6 16.07 62.6C16.17 63.1 16.27 63.6 16.47 64.1C21.47 66.1 26.67 67.6 31.97 68.7C34.97 69.3 38.27 69.9 42.07 70.3C41.87 68.9 41.77 67.5 42.07 66.1C42.27 65.1 42.57 64.1 43.07 63.3C33.17 61.7 25.87 58.5 25.37 53.9C24.87 48.7 29.17 38.9 35.57 33.3C41.17 28.4 50.27 25.8 59.47 25.6ZM42.87 72.9C39.07 72.5 35.27 71.9 31.47 71.1C26.97 70.1 22.57 68.9 18.17 67.3C18.87 68.3 19.57 69.3 20.37 70.3C25.67 76.7 32.57 81.5 40.47 84.1C43.07 85 45.67 85.7 48.37 86.2V86.1C48.07 85.4 48.07 84.6 48.17 83.9C48.47 82 49.87 80.9 51.67 80.1C48.27 78.9 45.17 77 43.37 73.9C43.17 73.6 42.97 73.3 42.87 72.9ZM51.47 84.9C51.87 85.9 53.17 86.7 54.77 87.2C56.67 87.4 58.67 87.6 60.67 87.7C62.67 87.6 64.67 87.4 66.57 87.2C68.07 86.7 69.27 86 69.77 85.1C71.87 81.2 50.17 81.3 51.47 84.9ZM103.17 67.3C98.87 68.9 94.47 70.1 89.97 71.1C86.17 71.9 82.47 72.5 78.57 72.9C78.37 73.2 78.27 73.6 78.07 73.9C76.27 77 73.27 78.9 69.77 80.1C71.57 80.9 72.87 82 73.27 83.8C73.47 84.6 73.37 85.4 73.07 86.2C79.57 85 85.77 82.6 91.27 79.1C95.17 76.4 98.57 73.2 101.47 69.5C102.07 68.8 102.57 68.1 103.17 67.3ZM59.77 73.7C58.87 75.3 56.97 77.7 52.97 76.9C48.07 75.3 44.57 72 45.47 66.8C46.27 62 54.17 59.1 60.67 59.1H60.77C67.27 59 75.17 62 75.97 66.8C76.77 71.4 74.17 74.4 70.37 76.2C64.57 78.3 62.57 75.6 61.67 73.8C61.27 72.9 61.07 72.5 60.87 72.5H60.77C60.47 72.5 60.27 72.9 59.77 73.7ZM60.67 61.3C56.77 61.3 51.97 62.4 51.57 64.9C50.77 68.9 56.77 70.9 60.67 70.9H60.77C64.67 70.9 70.67 68.9 69.87 64.9C69.37 62.4 64.57 61.3 60.67 61.3ZM49.77 53.3C49.77 55.2 46.87 55.2 46.87 53.3C46.87 51.7 46.37 50.2 45.37 49C44.47 48 43.17 47.3 41.87 47.3C40.97 47.3 40.07 47.6 39.37 48.1C38.57 48.7 37.87 49.5 37.47 50.4C37.17 51.1 36.27 51.4 35.57 51.1C34.87 50.8 34.57 49.9 34.87 49.2C35.57 47.8 36.57 46.6 37.77 45.7C38.97 44.9 40.47 44.4 41.97 44.4C44.17 44.4 46.27 45.4 47.67 47.1C48.97 48.9 49.77 51.1 49.77 53.3ZM71.67 53.3C71.67 55.2 74.57 55.2 74.57 53.3C74.57 51.7 75.07 50.2 76.07 49C76.97 48 78.27 47.3 79.57 47.3C80.47 47.3 81.37 47.6 82.07 48.1C82.87 48.7 83.57 49.5 83.97 50.4C84.77 52.1 87.37 50.9 86.57 49.2C85.87 47.8 84.87 46.6 83.67 45.7C82.47 44.9 80.97 44.4 79.47 44.4C77.27 44.4 75.17 45.4 73.77 47.1C72.47 48.8 71.57 51.1 71.67 53.3ZM72.77 92.2C69.67 93.2 66.47 93.8 63.17 94C55.67 94.4 48.17 92.8 41.57 89.2C40.27 88.8 39.07 88.4 37.77 88C40.77 92.1 45.07 95.2 49.87 96.8C44.97 96 39.97 94.4 36.07 91.8C33.57 97.2 32.07 104.7 33.27 115C33.57 117.3 33.87 119.6 34.37 121.6C40.87 118.7 45.47 119.8 51.07 123.6C51.47 117.4 52.67 111.2 54.47 105.2C54.87 104 55.37 103.5 56.07 103.4C56.77 103.3 58.07 103.4 57.97 105.5C57.77 106.4 57.57 107.4 57.47 108.2C57.07 110.2 56.77 112.2 56.47 114.2C56.17 116.2 55.87 118.2 55.67 120.2C55.47 121.5 55.37 122.8 55.27 124.1C55.27 124.8 55.17 125.6 55.17 126.3C58.27 126.7 61.27 126.6 64.37 126.2C64.37 125.5 64.27 124.8 64.27 124C64.07 120.8 63.57 117.4 63.07 114.2C62.77 112.3 62.47 110.4 62.07 108.5C61.87 107.3 61.57 106.2 61.17 105C61.27 102.9 63.97 102.4 64.77 104.8C66.67 110.9 67.87 117.3 68.27 123.7C73.37 120.8 80.07 118.6 84.97 121.3C85.37 119.2 85.77 117.1 86.07 114.8C87.17 105.3 85.97 98.2 83.77 92.9C79.87 95.2 74.87 96.4 70.17 97C75.47 95.5 80.07 92.3 83.37 87.9C82.17 88.3 80.87 88.8 79.57 89.1C77.57 90.5 75.27 91.5 72.77 92.2ZM16.07 7.2C21.27 8.7 26.17 11 30.67 14C28.77 15.5 27.07 17.1 25.37 18.9C24.47 17.5 23.57 16.1 22.57 14.7C20.67 12 18.47 9.5 16.07 7.2ZM7.57 6H8.07C13.87 9.2 18.97 15.6 22.77 22C21.97 23 21.27 24 20.47 25.1C17.67 29.3 15.47 33.9 13.97 38.7C9.27 32.4 3.37001 20.9 7.37001 6.09999C7.47001 6.09999 7.47 6.1 7.57 6ZM113.87 6H113.37C107.57 9.2 102.47 15.6 98.67 22C99.27 22.8 99.87 23.6 100.47 24.5C103.47 28.9 105.77 33.7 107.37 38.7C112.07 32.4 117.97 20.9 113.97 6.09999L113.87 6ZM105.27 7.2C100.07 8.7 95.17 11 90.67 14C92.57 15.5 94.27 17.2 95.97 18.9C96.87 17.5 97.77 16 98.77 14.7C100.67 12 102.87 9.5 105.27 7.2ZM35.47 126C36.87 131.3 38.77 136.4 41.37 141.2C41.67 141.7 42.07 142.2 42.57 142.4C44.57 143.6 47.37 144.9 47.87 150C45.57 147.1 43.37 145 39.97 144.3C38.17 144.2 36.47 144.8 35.17 145.9C32.37 148.8 34.37 153.8 36.07 154.2C37.77 154.6 55.07 154.2 55.07 154.2C55.07 154.2 55.77 151 54.47 149.2C53.17 147.4 51.07 138.2 50.97 128.4C46.97 124.8 40.67 122.4 35.47 126ZM84.07 126C82.67 131.3 80.77 136.4 78.17 141.2C77.87 141.7 77.47 142.2 76.97 142.4C74.97 143.6 72.17 144.9 71.67 150C73.97 147.1 76.17 145 79.57 144.3C81.17 144.3 83.07 144.6 84.37 145.9C87.17 148.8 85.17 153.8 83.47 154.2C81.77 154.6 64.47 154.2 64.47 154.2C64.47 154.2 63.77 151 65.07 149.2C66.37 147.4 68.47 138.2 68.57 128.4C72.67 124.8 78.97 122.4 84.07 126ZM61.37 147.8C60.87 147.8 60.37 147.8 59.77 147.8H58.57C58.37 147.4 58.17 147.1 57.97 146.7C57.67 146.1 57.47 145.5 57.37 144.9C56.87 143.2 56.47 141.4 56.17 139.6C55.57 136.3 55.27 133 55.27 129.6C58.47 130 61.67 130 64.77 129.5C64.67 133.4 64.27 137.2 63.57 141.1C63.27 142.4 62.67 145.7 61.97 146.9C61.67 147.2 61.57 147.5 61.37 147.8ZM99.17 126.8C99.27 136.2 93.37 139.9 89.97 142.6C105.67 135.4 107.47 147.6 105.87 149H89.57C89.47 145 86.67 141.6 82.77 140.7C83.97 138.1 85.07 135.4 85.97 132.6C90.57 130.2 96.07 127.7 99.17 126.8ZM90.57 113.1C94.47 114.9 96.97 119.1 97.57 123.8C94.27 124.9 91.07 126.2 87.97 127.9C89.07 123.8 89.87 119.7 90.37 115.5C90.47 114.7 90.57 113.9 90.57 113.1ZM28.97 113.2C25.07 115.1 22.67 119.2 22.17 123.8C25.47 124.9 28.57 126.2 31.67 127.8C30.57 123.7 29.77 119.6 29.27 115.4C29.17 114.7 29.07 113.9 28.97 113.2ZM20.37 126.8C20.27 136.2 26.17 139.9 29.57 142.6C13.87 135.4 12.07 147.6 13.67 149H29.67C29.77 146.7 30.67 144.6 32.17 143C33.27 141.8 34.77 141 36.27 140.5C35.97 139.8 35.67 139.2 35.37 138.5C34.47 136.5 33.67 134.4 32.97 132.3C28.57 130 23.47 127.6 20.37 126.8Z" fill="#EA505B"/>
</svg>
